<svg width="68" height="71" viewBox="0 0 68 71" fill="none" xmlns="http://www.w3.org/2000/svg">
<path d="M0 33.8802C0 27.6431 5.0562 22.5869 11.2933 22.5869H56.4666C62.7038 22.5869 67.76 27.6431 67.76 33.8802V59.2902C67.76 65.5274 62.7038 70.5836 56.4666 70.5836H11.2933C5.0562 70.5836 0 65.5274 0 59.2902V33.8802Z" fill="#ED7462"/>
<path d="M42.3503 25.41V14.1167C42.3503 9.43881 38.5582 5.64666 33.8803 5.64666C29.2025 5.64666 25.4103 9.43881 25.4103 14.1167V25.41C25.4103 30.0878 29.2025 33.88 33.8803 33.88V39.5266C26.3271 39.5266 20.1604 33.5945 19.783 26.1351L19.7637 25.41V14.1167C19.7637 6.32024 26.0839 0 33.8803 0C41.6767 0 47.997 6.32024 47.997 14.1167V25.41L47.9777 26.1351C47.6002 33.5945 41.4335 39.5266 33.8803 39.5266V33.88C38.5582 33.88 42.3503 30.0878 42.3503 25.41Z" fill="#ED7462"/>
<path d="M63.7345 67.9285C61.7699 69.5831 59.2362 70.5836 56.4666 70.5836H11.2933C5.0562 70.5836 2.27372e-08 65.5274 0 59.2903V33.8803C0 31.4213 0.788677 29.1479 2.12301 27.2935L63.7345 67.9285Z" fill="#FF9585"/>
<path d="M34.5243 32.7871C39.6516 32.7871 43.9276 36.295 44.9063 40.9544C49.5062 41.1109 53.1878 44.9287 53.1878 49.6178C53.1878 54.4063 49.3486 58.2882 44.6127 58.2882H22.4183C17.6825 58.2882 13.8433 54.4063 13.8433 49.6178C13.8433 44.8293 17.6825 40.9474 22.4183 40.9474H24.1434C25.1249 36.2915 29.3997 32.7871 34.5243 32.7871Z" fill="white" fill-opacity="0.2"/>
<path d="M44.6125 56.4667V58.2882H22.4186V56.4667H44.6125ZM51.3663 49.6175C51.3661 45.8963 48.4488 42.8975 44.8444 42.7748L43.4171 42.7264L43.1239 41.329C42.3283 37.5411 38.8191 34.6087 34.5245 34.6086C30.2318 34.6086 26.7235 37.5382 25.9257 41.3233L25.6211 42.7691H22.4186C18.7077 42.7691 15.6649 45.8161 15.6648 49.6175C15.6648 53.4191 18.7076 56.4667 22.4186 56.4667V58.2882L22.1973 58.2853C17.5636 58.1668 13.8433 54.3313 13.8433 49.6175C13.8434 44.9039 17.5637 41.069 22.1973 40.9504L22.4186 40.9476H24.1433L24.245 40.5143C25.393 36.0758 29.56 32.7871 34.5245 32.7871L35.0026 32.7971C39.9157 33.0073 43.9582 36.441 44.9063 40.9547C49.5061 41.1113 53.1876 44.9285 53.1878 49.6175C53.1878 54.3313 49.4675 58.1668 44.8337 58.2853L44.6125 58.2882V56.4667C48.3234 56.4667 51.3663 53.4191 51.3663 49.6175Z" fill="white"/>
</svg>
